<svg id="Layer_1" data-name="Layer 1" xmlns="http://www.w3.org/2000/svg" xmlns:xlink="http://www.w3.org/1999/xlink" viewBox="0 0 951.99 240"><defs><style>.cls-1{fill:#fff;}.cls-2{fill:url(#Degradado_sin_nombre_2188);}.cls-3{fill:url(#Degradado_sin_nombre_2188-2);}.cls-4{fill:url(#Degradado_sin_nombre_2188-3);}</style><linearGradient id="Degradado_sin_nombre_2188" x1="400.99" y1="658.77" x2="400.99" y2="541.23" gradientUnits="userSpaceOnUse"><stop offset="0" stop-color="#cb00ff"/><stop offset="0.06" stop-color="#cf06f1"/><stop offset="0.53" stop-color="#e8318c"/><stop offset="0.85" stop-color="#f94c4c"/><stop offset="1" stop-color="#ff5633"/></linearGradient><linearGradient id="Degradado_sin_nombre_2188-2" x1="487.02" y1="658.77" x2="487.02" y2="541.29" xlink:href="#Degradado_sin_nombre_2188"/><linearGradient id="Degradado_sin_nombre_2188-3" x1="444.01" y1="658.77" x2="444.01" y2="570.42" xlink:href="#Degradado_sin_nombre_2188"/></defs><title>winsol logo </title><circle class="cls-1" cx="120" cy="120" r="120"/><path class="cls-2" d="M412.9,561.35l-21.67-19.59a2,2,0,0,0-2.18-.36,1.87,1.87,0,0,0-.88.74,2,2,0,0,0-.34,1.09l-.08,92.4a4,4,0,0,0,.36,1.61,4.27,4.27,0,0,0,1,1.34l21.76,19.66a2,2,0,0,0,1,.5,1.93,1.93,0,0,0,1.13-.14,2,2,0,0,0,.89-.74,2.09,2.09,0,0,0,.34-1.09V564.29a4.09,4.09,0,0,0-1.33-2.94Z" transform="translate(-324.01 -480)"/><path class="cls-3" d="M499.92,542.2a2,2,0,0,0-.89-.74,1.93,1.93,0,0,0-1.13-.14,2.11,2.11,0,0,0-1,.5l-21.75,19.6a4,4,0,0,0-1,1.33,4.2,4.2,0,0,0-.36,1.61v92.41a2,2,0,0,0,1.23,1.84,2,2,0,0,0,2.17-.37l21.76-19.6a4.27,4.27,0,0,0,1-1.34,4,4,0,0,0,.36-1.61v-92.4A2,2,0,0,0,499.92,542.2Z" transform="translate(-324.01 -480)"/><path class="cls-4" d="M456,570.6a2,2,0,0,0-1.15-.15,2.11,2.11,0,0,0-1,.5l-21.67,19.74a4,4,0,0,0-1.32,2.94v20.5h0l0,42.65a2,2,0,0,0,.35,1.09,2,2,0,0,0,.88.74,2,2,0,0,0,1.14.13,1.89,1.89,0,0,0,1-.5l21.6-19.76a3.91,3.91,0,0,0,1-1.34,4,4,0,0,0,.36-1.6V615.07h0V572.43a2.26,2.26,0,0,0-.34-1.11A2,2,0,0,0,456,570.6Z" transform="translate(-324.01 -480)"/><path class="cls-1" d="M636.35,659.67,601,569.78h17.82l24.34,59.51,25.88-59.51h19.07l27.43,59.67,22.78-59.67h17.83l-33.79,89.89H708.73L678.66,593,650,659.67Z" transform="translate(-324.01 -480)"/><path class="cls-1" d="M768.56,557.07V540.33h16.73v16.74Zm0,102.6V569.78h16.73v89.89Z" transform="translate(-324.01 -480)"/><path class="cls-1" d="M800,659.67V569.78h71.29a19.14,19.14,0,0,1,10.16,2.79,21.2,21.2,0,0,1,7.28,7.36,19.23,19.23,0,0,1,2.71,10v69.74H874.72V590.39a4,4,0,0,0-3.87-3.87H820.63a4,4,0,0,0-3.87,3.87v69.28Z" transform="translate(-324.01 -480)"/><path class="cls-1" d="M927.73,659.67A19.48,19.48,0,0,1,917.58,657a20.53,20.53,0,0,1-7.29-7.29,19.48,19.48,0,0,1-2.71-10.15V633h16.74v6a4,4,0,0,0,3.88,3.87h70.36a3.48,3.48,0,0,0,2.64-1.16,3.85,3.85,0,0,0,1.08-2.71V616.12a3.78,3.78,0,0,0-1.08-2.79,3.63,3.63,0,0,0-2.64-1.09H927.73a19.48,19.48,0,0,1-10.15-2.71,20.42,20.42,0,0,1-7.29-7.28,19.5,19.5,0,0,1-2.71-10.15V568.23a19.54,19.54,0,0,1,2.71-10.16,20.59,20.59,0,0,1,7.29-7.28,19.48,19.48,0,0,1,10.15-2.71H999a19.5,19.5,0,0,1,10.15,2.71,20.56,20.56,0,0,1,7.28,7.28,19.55,19.55,0,0,1,2.72,10.16v6.51h-16.9v-6a3.85,3.85,0,0,0-1.08-2.71,3.48,3.48,0,0,0-2.64-1.16H928.2a4,4,0,0,0-3.88,3.87v22.94a3.65,3.65,0,0,0,1.16,2.79,3.88,3.88,0,0,0,2.72,1.09H999a19.5,19.5,0,0,1,10.15,2.71,20.56,20.56,0,0,1,7.28,7.28,19.51,19.51,0,0,1,2.72,10.15v23.87a19.48,19.48,0,0,1-2.72,10.15,20.5,20.5,0,0,1-7.28,7.29A19.5,19.5,0,0,1,999,659.67Z" transform="translate(-324.01 -480)"/><path class="cls-1" d="M1055.75,659.67A19.5,19.5,0,0,1,1045.6,657a20.42,20.42,0,0,1-7.28-7.29,19.48,19.48,0,0,1-2.72-10.15V568.23a19.55,19.55,0,0,1,2.72-10.16,20.48,20.48,0,0,1,7.28-7.28,19.5,19.5,0,0,1,10.15-2.71h71.3a19.5,19.5,0,0,1,10.15,2.71,20.59,20.59,0,0,1,7.29,7.28,19.63,19.63,0,0,1,2.71,10.16v71.29a19.57,19.57,0,0,1-2.71,10.15,20.53,20.53,0,0,1-7.29,7.29,19.5,19.5,0,0,1-10.15,2.71Zm.47-16.74h70.36a3.46,3.46,0,0,0,2.64-1.16,3.85,3.85,0,0,0,1.08-2.71V568.69a3.85,3.85,0,0,0-1.08-2.71,3.46,3.46,0,0,0-2.64-1.16h-70.36a4,4,0,0,0-3.88,3.87v70.37a4,4,0,0,0,3.88,3.87Z" transform="translate(-324.01 -480)"/><path class="cls-1" d="M1164.4,659.67V547.92h16.74v95H1276v16.74Z" transform="translate(-324.01 -480)"/></svg>