<svg xmlns="http://www.w3.org/2000/svg" width="1600" height="3324" fill="none"  xmlns:v="https://vecta.io/nano"><style><![CDATA[.M{color-interpolation-filters:sRGB}.N{flood-opacity:0}.O{fill-opacity:.45}.P{fill:#ffe198}.Q{fill-opacity:.8}.R{fill:#ff3278}]]></style><mask id="A" mask-type="alpha" maskUnits="userSpaceOnUse" x="0" y="0" width="1600" height="3324"><path fill="#c4c4c4" d="M0 0h1600v3324H0z"/></mask><g mask="url(#A)"><g filter="url(#B)" class="P Q"><ellipse rx="860.33" ry="564.529" transform="matrix(.986555 -.163428 .099117 .995076 1116.72 85.3513)"/></g><g filter="url(#C)" class="P Q"><ellipse rx="860.33" ry="564.529" transform="matrix(.986555 -.163428 .099117 .995076 1151.72 3202.35)"/></g><g filter="url(#D)" class="P Q"><ellipse rx="860.33" ry="564.529" transform="matrix(.986555 -.163428 .099117 .995076 485.718 1849.35)"/></g><g filter="url(#E)" class="O R"><ellipse rx="413.177" ry="758.242" transform="matrix(.963932 .266148 -.16378 .986497 181.459 94.9694)"/></g><g filter="url(#F)" class="O R"><ellipse rx="413.177" ry="758.242" transform="matrix(.963932 .266148 -.16378 .986497 224.459 3073.97)"/></g><g filter="url(#G)" class="O R"><ellipse rx="413.177" ry="758.242" transform="matrix(.963932 .266148 -.16378 .986497 1219.46 1752.97)"/></g><g filter="url(#H)"><ellipse rx="432.019" ry="245.821" transform="matrix(.612785 -.79025 .612785 .79025 278.046 1080.42)" fill="#d015ff" fill-opacity=".4"/></g><g filter="url(#I)"><ellipse rx="432.019" ry="245.821" transform="matrix(.612785 -.79025 .612785 .79025 1452.05 2442.03)" fill="#d015ff" fill-opacity=".4"/></g><g filter="url(#J)" class="O"><ellipse rx="322.22" ry="336.35" transform="matrix(.555559 .831477 -.668935 .743321 709.008 1262.07)" fill="#5d85ff"/></g><g filter="url(#K)" class="O"><ellipse rx="322.22" ry="336.35" transform="matrix(.555559 .831477 -.668935 .743321 931.333 2505.93)" fill="#5d85ff"/></g><g filter="url(#L)"><ellipse rx="346.482" ry="462.52" transform="matrix(.943576 -.331156 .206482 .978451 968.333 1056.08)" fill="#82fff9" fill-opacity=".55"/></g><g filter="url(#M)"><ellipse rx="346.482" ry="462.52" transform="matrix(.943576 -.331156 .206482 .978451 608.434 2506.29)" fill="#82fff9" fill-opacity=".55"/></g><g filter="url(#N)"><ellipse cx="1515" cy="1086.85" rx="352" ry="625.458" fill="#7f9fff" fill-opacity=".5"/></g><g filter="url(#O)"><ellipse cx="186" cy="2448.46" rx="352" ry="625.458" fill="#7f9fff" fill-opacity=".5"/></g></g><defs><filter id="B" x="-133.92" y="-893.863" width="2501.27" height="1958.43" filterUnits="userSpaceOnUse" class="M"><feFlood class="N"/><feBlend in="SourceGraphic"/><feGaussianBlur stdDeviation="200"/></filter><filter id="C" x="-98.92" y="2223.14" width="2501.27" height="1958.43" filterUnits="userSpaceOnUse" class="M"><feFlood class="N"/><feBlend in="SourceGraphic"/><feGaussianBlur stdDeviation="200"/></filter><filter id="D" x="-764.92" y="870.137" width="2501.27" height="1958.43" filterUnits="userSpaceOnUse" class="M"><feFlood class="N"/><feBlend in="SourceGraphic"/><feGaussianBlur stdDeviation="200"/></filter><filter id="E" x="-635.838" y="-1061.17" width="1634.6" height="2312.29" filterUnits="userSpaceOnUse" class="M"><feFlood class="N"/><feBlend in="SourceGraphic"/><feGaussianBlur stdDeviation="200"/></filter><filter id="F" x="-592.838" y="1917.83" width="1634.6" height="2312.29" filterUnits="userSpaceOnUse" class="M"><feFlood class="N"/><feBlend in="SourceGraphic"/><feGaussianBlur stdDeviation="200"/></filter><filter id="G" x="402.162" y="596.826" width="1634.6" height="2312.29" filterUnits="userSpaceOnUse" class="M"><feFlood class="N"/><feBlend in="SourceGraphic"/><feGaussianBlur stdDeviation="200"/></filter><filter id="H" x="-326.598" y="387.548" width="1209.29" height="1385.74" filterUnits="userSpaceOnUse" class="M"><feFlood class="N"/><feBlend in="SourceGraphic"/><feGaussianBlur stdDeviation="150"/></filter><filter id="I" x="847.402" y="1749.16" width="1209.29" height="1385.74" filterUnits="userSpaceOnUse" class="M"><feFlood class="N"/><feBlend in="SourceGraphic"/><feGaussianBlur stdDeviation="150"/></filter><filter id="J" x="221.477" y="695.61" width="975.065" height="1132.91" filterUnits="userSpaceOnUse" class="M"><feFlood class="N"/><feBlend in="SourceGraphic"/><feGaussianBlur stdDeviation="100"/></filter><filter id="K" x="443.801" y="1939.48" width="975.065" height="1132.91" filterUnits="userSpaceOnUse" class="M"><feFlood class="N"/><feBlend in="SourceGraphic"/><feGaussianBlur stdDeviation="100"/></filter><filter id="L" x="327.648" y="289.092" width="1281.37" height="1533.97" filterUnits="userSpaceOnUse" class="M"><feFlood class="N"/><feBlend in="SourceGraphic"/><feGaussianBlur stdDeviation="150"/></filter><filter id="M" x="-32.25" y="1739.31" width="1281.37" height="1533.97" filterUnits="userSpaceOnUse" class="M"><feFlood class="N"/><feBlend in="SourceGraphic"/><feGaussianBlur stdDeviation="150"/></filter><filter id="N" x="763" y="61.389" width="1504" height="2050.92" filterUnits="userSpaceOnUse" class="M"><feFlood class="N"/><feBlend in="SourceGraphic"/><feGaussianBlur stdDeviation="200"/></filter><filter id="O" x="-566" y="1423" width="1504" height="2050.92" filterUnits="userSpaceOnUse" class="M"><feFlood class="N"/><feBlend in="SourceGraphic"/><feGaussianBlur stdDeviation="200"/></filter></defs></svg>