<svg xmlns="http://www.w3.org/2000/svg" width="101" height="27" fill="none"  xmlns:v="https://vecta.io/nano"><path d="M10.05 26.272c-3.309 0-6.245-.193-8.806-.578V21.07l7.004.408c1.111 0 1.961-.045 2.55-.136s1.009-.238 1.258-.442a1.06 1.06 0 0 0 .408-.646c.068-.272.102-.646.102-1.122 0-.567-.045-.975-.136-1.224s-.272-.419-.544-.51c-.272-.113-.748-.215-1.428-.306l-4.318-.544c-1.541-.181-2.72-.567-3.536-1.156-.793-.612-1.337-1.394-1.632-2.346-.272-.952-.408-2.142-.408-3.57 0-2.017.374-3.547 1.122-4.59a5.13 5.13 0 0 1 2.992-2.04c1.269-.34 2.879-.51 4.828-.51l3.91.17 3.91.544v4.522l-6.63-.442c-1.813 0-2.992.136-3.536.408-.295.136-.487.329-.578.578-.068.249-.102.601-.102 1.054 0 .567.034.975.102 1.224.091.227.261.397.51.51.272.091.737.181 1.394.272l4.964.612c.997.113 1.813.317 2.448.612.657.295 1.201.793 1.632 1.496.657.975.986 2.527.986 4.658 0 2.221-.351 3.899-1.054 5.032-.703 1.111-1.643 1.836-2.822 2.176s-2.709.51-4.59.51zm16.324 0c-1.7 0-2.958-.408-3.774-1.224s-1.224-2.153-1.224-4.012c0-1.36.159-2.414.476-3.162s.861-1.292 1.632-1.632c.793-.34 1.927-.51 3.4-.51l4.794.136v-.612c0-.861-.102-1.462-.306-1.802-.181-.363-.544-.589-1.088-.68-.521-.091-1.462-.136-2.822-.136-1.7 0-3.389.091-5.066.272V8.966c2.131-.385 4.397-.578 6.8-.578 2.38 0 4.125.249 5.236.748 1.133.499 1.87 1.235 2.21 2.21s.51 2.38.51 4.216V26h-5.236l-.136-2.006h-.272c-.589.929-1.303 1.541-2.142 1.836s-1.836.442-2.992.442zm2.584-3.978c.635 0 1.133-.068 1.496-.204a1.64 1.64 0 0 0 .85-.714c.249-.431.374-1.133.374-2.108v-.68h-3.094c-.612 0-1.054.045-1.326.136s-.465.272-.578.544c-.091.249-.136.669-.136 1.258 0 .499.057.873.17 1.122s.329.419.646.51c.34.091.873.136 1.598.136zm16.607 3.978c-1.7 0-2.958-.408-3.774-1.224s-1.224-2.153-1.224-4.012c0-1.36.159-2.414.476-3.162s.861-1.292 1.632-1.632c.793-.34 1.927-.51 3.4-.51l4.794.136v-.612c0-.861-.102-1.462-.306-1.802-.181-.363-.544-.589-1.088-.68-.521-.091-1.462-.136-2.822-.136-1.7 0-3.389.091-5.066.272V8.966c2.131-.385 4.397-.578 6.8-.578 2.38 0 4.125.249 5.236.748 1.133.499 1.87 1.235 2.21 2.21s.51 2.38.51 4.216V26h-5.236l-.136-2.006h-.272c-.589.929-1.303 1.541-2.142 1.836s-1.836.442-2.992.442zm2.584-3.978c.635 0 1.133-.068 1.496-.204a1.64 1.64 0 0 0 .85-.714c.249-.431.374-1.133.374-2.108v-.68h-3.094c-.612 0-1.054.045-1.326.136s-.465.272-.578.544c-.091.249-.136.669-.136 1.258 0 .499.057.873.17 1.122s.329.419.646.51c.34.091.873.136 1.598.136zm19.123 3.978c-1.088 0-2.289-.045-3.604-.136l-3.4-.34v-3.944l5.372.272 2.312-.102c.453-.068.737-.181.85-.34.136-.181.204-.476.204-.884 0-.34-.045-.578-.136-.714-.068-.159-.215-.272-.442-.34s-.623-.136-1.19-.204l-4.046-.51c-1.36-.181-2.278-.691-2.754-1.53-.453-.861-.68-2.142-.68-3.842 0-1.519.295-2.652.884-3.4.589-.771 1.383-1.269 2.38-1.496 1.02-.249 2.335-.374 3.944-.374l3.4.136c1.156.091 2.085.215 2.788.374v3.91l-4.998-.272-2.142.068c-.431.045-.737.159-.918.34-.159.159-.238.431-.238.816 0 .34.023.578.068.714.068.136.204.238.408.306.227.068.589.136 1.088.204l4.012.476c.884.113 1.575.317 2.074.612.499.272.884.771 1.156 1.496.295.703.442 1.734.442 3.094 0 1.609-.283 2.822-.85 3.638a3.75 3.75 0 0 1-2.244 1.598c-.952.249-2.199.374-3.74.374zM77.44 5.226V.738h5.61v4.488h-5.61zM77.474 26V8.66h5.542V26h-5.542zm16.427.272c-1.088 0-2.289-.045-3.604-.136l-3.4-.34v-3.944l5.372.272 2.312-.102c.453-.068.737-.181.85-.34.136-.181.204-.476.204-.884 0-.34-.045-.578-.136-.714-.068-.159-.215-.272-.442-.34s-.623-.136-1.19-.204l-4.046-.51c-1.36-.181-2.278-.691-2.754-1.53-.453-.861-.68-2.142-.68-3.842 0-1.519.295-2.652.884-3.4.589-.771 1.383-1.269 2.38-1.496 1.02-.249 2.335-.374 3.944-.374l3.4.136c1.156.091 2.085.215 2.788.374v3.91l-4.998-.272-2.142.068c-.431.045-.737.159-.918.34-.159.159-.238.431-.238.816 0 .34.023.578.068.714.068.136.204.238.408.306.227.068.589.136 1.088.204l4.012.476c.884.113 1.575.317 2.074.612.499.272.884.771 1.156 1.496.294.703.442 1.734.442 3.094 0 1.609-.284 2.822-.85 3.638a3.75 3.75 0 0 1-2.244 1.598c-.952.249-2.199.374-3.74.374z" fill="#222"/></svg>